<mxfile host="app.diagrams.net" modified="2021-01-26T20:36:17.841Z" agent="5.0 (Windows NT 10.0; Win64; x64) AppleWebKit/537.36 (KHTML, like Gecko) Chrome/87.0.4280.141 Safari/537.36" etag="xS4xM9bmmx3xdlQ55hJB" version="14.2.6" type="github">
  <diagram id="R2lEEEUBdFMjLlhIrx00" name="Page-1">
    <mxGraphModel dx="1185" dy="635" grid="1" gridSize="10" guides="1" tooltips="1" connect="1" arrows="1" fold="1" page="1" pageScale="1" pageWidth="850" pageHeight="1100" math="0" shadow="0" extFonts="Permanent Marker^https://fonts.googleapis.com/css?family=Permanent+Marker">
      <root>
        <mxCell id="0" />
        <mxCell id="1" parent="0" />
        <mxCell id="C-vyLk0tnHw3VtMMgP7b-2" value="Opportunities" style="shape=table;startSize=30;container=1;collapsible=1;childLayout=tableLayout;fixedRows=1;rowLines=0;fontStyle=1;align=center;resizeLast=1;" parent="1" vertex="1">
          <mxGeometry x="280" y="30" width="250" height="470" as="geometry">
            <mxRectangle x="280" y="30" width="110" height="30" as="alternateBounds" />
          </mxGeometry>
        </mxCell>
        <mxCell id="C-vyLk0tnHw3VtMMgP7b-3" value="" style="shape=partialRectangle;collapsible=0;dropTarget=0;pointerEvents=0;fillColor=none;points=[[0,0.5],[1,0.5]];portConstraint=eastwest;top=0;left=0;right=0;bottom=1;" parent="C-vyLk0tnHw3VtMMgP7b-2" vertex="1">
          <mxGeometry y="30" width="250" height="140" as="geometry" />
        </mxCell>
        <mxCell id="C-vyLk0tnHw3VtMMgP7b-4" value="dim" style="shape=partialRectangle;overflow=hidden;connectable=0;fillColor=none;top=0;left=0;bottom=0;right=0;fontStyle=1;" parent="C-vyLk0tnHw3VtMMgP7b-3" vertex="1">
          <mxGeometry width="30" height="140" as="geometry" />
        </mxCell>
        <mxCell id="C-vyLk0tnHw3VtMMgP7b-5" value="Opty_creation_date_dim&#xa;Product_dim&#xa;Customer_dim&#xa;Sales_team_dim" style="shape=partialRectangle;overflow=hidden;connectable=0;fillColor=none;top=0;left=0;bottom=0;right=0;align=left;spacingLeft=6;fontStyle=5;" parent="C-vyLk0tnHw3VtMMgP7b-3" vertex="1">
          <mxGeometry x="30" width="220" height="140" as="geometry" />
        </mxCell>
        <mxCell id="C-vyLk0tnHw3VtMMgP7b-6" value="" style="shape=partialRectangle;collapsible=0;dropTarget=0;pointerEvents=0;fillColor=none;points=[[0,0.5],[1,0.5]];portConstraint=eastwest;top=0;left=0;right=0;bottom=0;" parent="C-vyLk0tnHw3VtMMgP7b-2" vertex="1">
          <mxGeometry y="170" width="250" height="30" as="geometry" />
        </mxCell>
        <mxCell id="C-vyLk0tnHw3VtMMgP7b-7" value="fields" style="shape=partialRectangle;overflow=hidden;connectable=0;fillColor=none;top=0;left=0;bottom=0;right=0;" parent="C-vyLk0tnHw3VtMMgP7b-6" vertex="1">
          <mxGeometry width="30" height="30" as="geometry" />
        </mxCell>
        <mxCell id="C-vyLk0tnHw3VtMMgP7b-8" value="opty_id - уникальный ID возможности" style="shape=partialRectangle;overflow=hidden;connectable=0;fillColor=none;top=0;left=0;bottom=0;right=0;align=left;spacingLeft=6;fontSize=11;" parent="C-vyLk0tnHw3VtMMgP7b-6" vertex="1">
          <mxGeometry x="30" width="220" height="30" as="geometry" />
        </mxCell>
        <mxCell id="cmVOdVhynBlmCmBzbenZ-42" style="edgeStyle=none;rounded=0;orthogonalLoop=1;jettySize=auto;html=1;exitX=1;exitY=0.5;exitDx=0;exitDy=0;entryX=0;entryY=0.792;entryDx=0;entryDy=0;entryPerimeter=0;endArrow=none;endFill=0;" edge="1" parent="1" source="cmVOdVhynBlmCmBzbenZ-9" target="C-vyLk0tnHw3VtMMgP7b-3">
          <mxGeometry relative="1" as="geometry" />
        </mxCell>
        <mxCell id="cmVOdVhynBlmCmBzbenZ-9" value="DATE" style="swimlane;" vertex="1" parent="1">
          <mxGeometry x="40" y="140" width="200" height="60" as="geometry" />
        </mxCell>
        <mxCell id="cmVOdVhynBlmCmBzbenZ-33" style="rounded=0;orthogonalLoop=1;jettySize=auto;html=1;exitX=0.5;exitY=0;exitDx=0;exitDy=0;entryX=0.5;entryY=1;entryDx=0;entryDy=0;endArrow=none;endFill=0;" edge="1" parent="1" source="cmVOdVhynBlmCmBzbenZ-10" target="cmVOdVhynBlmCmBzbenZ-31">
          <mxGeometry relative="1" as="geometry" />
        </mxCell>
        <mxCell id="cmVOdVhynBlmCmBzbenZ-41" style="edgeStyle=none;rounded=0;orthogonalLoop=1;jettySize=auto;html=1;exitX=0;exitY=0.5;exitDx=0;exitDy=0;entryX=1;entryY=0.786;entryDx=0;entryDy=0;entryPerimeter=0;endArrow=none;endFill=0;" edge="1" parent="1" source="cmVOdVhynBlmCmBzbenZ-10" target="C-vyLk0tnHw3VtMMgP7b-3">
          <mxGeometry relative="1" as="geometry" />
        </mxCell>
        <mxCell id="cmVOdVhynBlmCmBzbenZ-10" value="CUSTOMER" style="swimlane;" vertex="1" parent="1">
          <mxGeometry x="600" y="140" width="200" height="60" as="geometry" />
        </mxCell>
        <mxCell id="cmVOdVhynBlmCmBzbenZ-27" value="Покупатели" style="text;html=1;align=center;verticalAlign=middle;resizable=0;points=[];autosize=1;" vertex="1" parent="cmVOdVhynBlmCmBzbenZ-10">
          <mxGeometry x="60" y="30" width="80" height="20" as="geometry" />
        </mxCell>
        <mxCell id="cmVOdVhynBlmCmBzbenZ-62" style="edgeStyle=none;rounded=0;orthogonalLoop=1;jettySize=auto;html=1;exitX=1;exitY=0.5;exitDx=0;exitDy=0;endArrow=none;endFill=0;fontSize=11;" edge="1" parent="1" source="cmVOdVhynBlmCmBzbenZ-11">
          <mxGeometry relative="1" as="geometry">
            <mxPoint x="280" y="320.83333333333337" as="targetPoint" />
          </mxGeometry>
        </mxCell>
        <mxCell id="cmVOdVhynBlmCmBzbenZ-11" value="PRODUCT" style="swimlane;" vertex="1" parent="1">
          <mxGeometry x="40" y="290" width="200" height="60" as="geometry" />
        </mxCell>
        <mxCell id="cmVOdVhynBlmCmBzbenZ-58" value="Вид продукта для реализации" style="text;html=1;align=center;verticalAlign=middle;resizable=0;points=[];autosize=1;fontSize=11;" vertex="1" parent="cmVOdVhynBlmCmBzbenZ-11">
          <mxGeometry x="15" y="30" width="170" height="20" as="geometry" />
        </mxCell>
        <mxCell id="cmVOdVhynBlmCmBzbenZ-38" style="edgeStyle=none;rounded=0;orthogonalLoop=1;jettySize=auto;html=1;exitX=0.5;exitY=0;exitDx=0;exitDy=0;entryX=0.5;entryY=1;entryDx=0;entryDy=0;endArrow=none;endFill=0;" edge="1" parent="1" source="cmVOdVhynBlmCmBzbenZ-12" target="cmVOdVhynBlmCmBzbenZ-10">
          <mxGeometry relative="1" as="geometry" />
        </mxCell>
        <mxCell id="cmVOdVhynBlmCmBzbenZ-39" style="edgeStyle=none;rounded=0;orthogonalLoop=1;jettySize=auto;html=1;exitX=0;exitY=0.5;exitDx=0;exitDy=0;endArrow=none;endFill=0;" edge="1" parent="1" source="cmVOdVhynBlmCmBzbenZ-12">
          <mxGeometry relative="1" as="geometry">
            <mxPoint x="530" y="320" as="targetPoint" />
          </mxGeometry>
        </mxCell>
        <mxCell id="cmVOdVhynBlmCmBzbenZ-12" value="SALES TEAM" style="swimlane;startSize=23;" vertex="1" parent="1">
          <mxGeometry x="600" y="290" width="200" height="60" as="geometry" />
        </mxCell>
        <mxCell id="cmVOdVhynBlmCmBzbenZ-54" value="Команда продажи" style="text;html=1;align=center;verticalAlign=middle;resizable=0;points=[];autosize=1;fontSize=11;" vertex="1" parent="cmVOdVhynBlmCmBzbenZ-12">
          <mxGeometry x="45" y="30" width="110" height="20" as="geometry" />
        </mxCell>
        <mxCell id="cmVOdVhynBlmCmBzbenZ-37" style="edgeStyle=none;rounded=0;orthogonalLoop=1;jettySize=auto;html=1;exitX=0.5;exitY=0;exitDx=0;exitDy=0;endArrow=none;endFill=0;" edge="1" parent="1" source="cmVOdVhynBlmCmBzbenZ-13">
          <mxGeometry relative="1" as="geometry">
            <mxPoint x="700" y="350" as="targetPoint" />
          </mxGeometry>
        </mxCell>
        <mxCell id="cmVOdVhynBlmCmBzbenZ-13" value="BRANCH" style="swimlane;" vertex="1" parent="1">
          <mxGeometry x="600" y="390" width="200" height="60" as="geometry" />
        </mxCell>
        <mxCell id="cmVOdVhynBlmCmBzbenZ-55" value="Отделение продажи" style="text;html=1;align=center;verticalAlign=middle;resizable=0;points=[];autosize=1;fontSize=11;" vertex="1" parent="cmVOdVhynBlmCmBzbenZ-13">
          <mxGeometry x="40" y="30" width="120" height="20" as="geometry" />
        </mxCell>
        <mxCell id="cmVOdVhynBlmCmBzbenZ-36" style="edgeStyle=none;rounded=0;orthogonalLoop=1;jettySize=auto;html=1;exitX=0.5;exitY=1;exitDx=0;exitDy=0;entryX=0.5;entryY=0;entryDx=0;entryDy=0;endArrow=none;endFill=0;" edge="1" parent="1" source="cmVOdVhynBlmCmBzbenZ-14" target="cmVOdVhynBlmCmBzbenZ-15">
          <mxGeometry relative="1" as="geometry" />
        </mxCell>
        <mxCell id="cmVOdVhynBlmCmBzbenZ-14" value="CITY" style="swimlane;" vertex="1" parent="1">
          <mxGeometry x="600" y="460" width="200" height="60" as="geometry" />
        </mxCell>
        <mxCell id="cmVOdVhynBlmCmBzbenZ-15" value="REGION" style="swimlane;" vertex="1" parent="1">
          <mxGeometry x="600" y="530" width="200" height="60" as="geometry" />
        </mxCell>
        <mxCell id="cmVOdVhynBlmCmBzbenZ-57" value="Регион отделения/ покупателя" style="text;html=1;align=center;verticalAlign=middle;resizable=0;points=[];autosize=1;fontSize=11;" vertex="1" parent="cmVOdVhynBlmCmBzbenZ-15">
          <mxGeometry x="10" y="30" width="180" height="20" as="geometry" />
        </mxCell>
        <mxCell id="cmVOdVhynBlmCmBzbenZ-31" value="ACQUISITION CHANNEL" style="swimlane;" vertex="1" parent="1">
          <mxGeometry x="600" y="30" width="200" height="60" as="geometry" />
        </mxCell>
        <mxCell id="cmVOdVhynBlmCmBzbenZ-32" value="Канал привлечения покупателя" style="text;html=1;align=center;verticalAlign=middle;resizable=0;points=[];autosize=1;" vertex="1" parent="cmVOdVhynBlmCmBzbenZ-31">
          <mxGeometry y="30" width="200" height="20" as="geometry" />
        </mxCell>
        <mxCell id="cmVOdVhynBlmCmBzbenZ-35" style="edgeStyle=none;rounded=0;orthogonalLoop=1;jettySize=auto;html=1;entryX=0.5;entryY=0;entryDx=0;entryDy=0;endArrow=none;endFill=0;" edge="1" parent="1" source="cmVOdVhynBlmCmBzbenZ-14" target="cmVOdVhynBlmCmBzbenZ-14">
          <mxGeometry relative="1" as="geometry">
            <Array as="points">
              <mxPoint x="700" y="450" />
            </Array>
          </mxGeometry>
        </mxCell>
        <mxCell id="cmVOdVhynBlmCmBzbenZ-45" value="amount - объем продукции" style="shape=partialRectangle;overflow=hidden;connectable=0;fillColor=none;top=0;left=0;bottom=0;right=0;align=left;spacingLeft=6;fontSize=11;" vertex="1" parent="1">
          <mxGeometry x="310" y="226" width="220" height="30" as="geometry" />
        </mxCell>
        <mxCell id="cmVOdVhynBlmCmBzbenZ-47" value="status - статус возможности" style="shape=partialRectangle;overflow=hidden;connectable=0;fillColor=none;top=0;left=0;bottom=0;right=0;align=left;spacingLeft=6;fontSize=11;" vertex="1" parent="1">
          <mxGeometry x="310" y="254" width="220" height="30" as="geometry" />
        </mxCell>
        <mxCell id="cmVOdVhynBlmCmBzbenZ-48" value="expected_close_date - ожидаемая дата завершения сделки" style="shape=partialRectangle;overflow=hidden;connectable=0;fillColor=none;top=0;left=0;bottom=0;right=0;align=left;spacingLeft=6;fontSize=11;whiteSpace=wrap;" vertex="1" parent="1">
          <mxGeometry x="310" y="285" width="220" height="30" as="geometry" />
        </mxCell>
        <mxCell id="cmVOdVhynBlmCmBzbenZ-49" value="lead_bool - процесс создания через лид или нет" style="shape=partialRectangle;overflow=hidden;connectable=0;fillColor=none;top=0;left=0;bottom=0;right=0;align=left;spacingLeft=6;fontSize=11;whiteSpace=wrap;" vertex="1" parent="1">
          <mxGeometry x="310" y="322" width="220" height="30" as="geometry" />
        </mxCell>
        <mxCell id="cmVOdVhynBlmCmBzbenZ-50" value="estimated_profit - ожидаемая прибыль" style="shape=partialRectangle;overflow=hidden;connectable=0;fillColor=none;top=0;left=0;bottom=0;right=0;align=left;spacingLeft=6;fontSize=11;" vertex="1" parent="1">
          <mxGeometry x="310" y="353" width="220" height="30" as="geometry" />
        </mxCell>
        <mxCell id="cmVOdVhynBlmCmBzbenZ-51" value="sec_check  - статус проверки" style="shape=partialRectangle;overflow=hidden;connectable=0;fillColor=none;top=0;left=0;bottom=0;right=0;align=left;spacingLeft=6;fontSize=11;" vertex="1" parent="1">
          <mxGeometry x="310" y="380" width="220" height="30" as="geometry" />
        </mxCell>
        <mxCell id="cmVOdVhynBlmCmBzbenZ-52" value="new_client_bool - возможность для нового клиента или старого" style="shape=partialRectangle;overflow=hidden;connectable=0;fillColor=none;top=0;left=0;bottom=0;right=0;align=left;spacingLeft=6;fontSize=11;whiteSpace=wrap;" vertex="1" parent="1">
          <mxGeometry x="310" y="410" width="220" height="30" as="geometry" />
        </mxCell>
        <mxCell id="cmVOdVhynBlmCmBzbenZ-53" value="close_date - фактическая дата завершения сделки" style="shape=partialRectangle;overflow=hidden;connectable=0;fillColor=none;top=0;left=0;bottom=0;right=0;align=left;spacingLeft=6;fontSize=11;whiteSpace=wrap;" vertex="1" parent="1">
          <mxGeometry x="310" y="446" width="220" height="30" as="geometry" />
        </mxCell>
        <mxCell id="cmVOdVhynBlmCmBzbenZ-56" value="Город отделения / покупателя" style="text;html=1;align=center;verticalAlign=middle;resizable=0;points=[];autosize=1;fontSize=11;" vertex="1" parent="1">
          <mxGeometry x="615" y="490" width="170" height="20" as="geometry" />
        </mxCell>
        <mxCell id="cmVOdVhynBlmCmBzbenZ-59" value="Календарь" style="text;html=1;align=center;verticalAlign=middle;resizable=0;points=[];autosize=1;fontSize=11;" vertex="1" parent="1">
          <mxGeometry x="105" y="170" width="70" height="20" as="geometry" />
        </mxCell>
      </root>
    </mxGraphModel>
  </diagram>
</mxfile>
